<mxfile host="app.diagrams.net" modified="2023-08-18T15:35:58.696Z" agent="Mozilla/5.0 (Windows NT 10.0; Win64; x64) AppleWebKit/537.36 (KHTML, like Gecko) Chrome/116.0.0.0 Safari/537.36" etag="4Iq6tGehgQsIm9sxgJK1" version="21.6.8" type="github">
  <diagram name="Page-1" id="FXW_L7rzzdZokWx3nde0">
    <mxGraphModel dx="1434" dy="790" grid="1" gridSize="10" guides="1" tooltips="1" connect="1" arrows="1" fold="1" page="1" pageScale="1" pageWidth="850" pageHeight="1100" math="0" shadow="0">
      <root>
        <mxCell id="0" />
        <mxCell id="1" parent="0" />
        <mxCell id="Ncyxadf-XAFZvaypHymy-3" value="" style="edgeStyle=orthogonalEdgeStyle;rounded=0;orthogonalLoop=1;jettySize=auto;html=1;" parent="1" source="Ncyxadf-XAFZvaypHymy-1" target="Ncyxadf-XAFZvaypHymy-2" edge="1">
          <mxGeometry relative="1" as="geometry" />
        </mxCell>
        <mxCell id="Ncyxadf-XAFZvaypHymy-7" style="edgeStyle=orthogonalEdgeStyle;rounded=0;orthogonalLoop=1;jettySize=auto;html=1;entryX=0.5;entryY=0;entryDx=0;entryDy=0;" parent="1" source="Ncyxadf-XAFZvaypHymy-1" target="Ncyxadf-XAFZvaypHymy-4" edge="1">
          <mxGeometry relative="1" as="geometry" />
        </mxCell>
        <mxCell id="Ncyxadf-XAFZvaypHymy-1" value="&lt;font style=&quot;font-size: 25px;&quot;&gt;קופה&lt;/font&gt;" style="rounded=0;whiteSpace=wrap;html=1;" parent="1" vertex="1">
          <mxGeometry x="640" y="40" width="120" height="60" as="geometry" />
        </mxCell>
        <mxCell id="Ncyxadf-XAFZvaypHymy-22" style="edgeStyle=orthogonalEdgeStyle;rounded=0;orthogonalLoop=1;jettySize=auto;html=1;entryX=0.5;entryY=0;entryDx=0;entryDy=0;" parent="1" source="Ncyxadf-XAFZvaypHymy-2" target="Ncyxadf-XAFZvaypHymy-21" edge="1">
          <mxGeometry relative="1" as="geometry" />
        </mxCell>
        <mxCell id="Ncyxadf-XAFZvaypHymy-2" value="&lt;font style=&quot;font-size: 15px;&quot;&gt;הכנסות&lt;/font&gt;" style="rhombus;whiteSpace=wrap;html=1;rounded=0;" parent="1" vertex="1">
          <mxGeometry x="720" y="150" width="80" height="80" as="geometry" />
        </mxCell>
        <mxCell id="Ncyxadf-XAFZvaypHymy-23" style="edgeStyle=orthogonalEdgeStyle;rounded=0;orthogonalLoop=1;jettySize=auto;html=1;entryX=0.5;entryY=0;entryDx=0;entryDy=0;" parent="1" source="Ncyxadf-XAFZvaypHymy-4" target="Ncyxadf-XAFZvaypHymy-21" edge="1">
          <mxGeometry relative="1" as="geometry" />
        </mxCell>
        <mxCell id="Ncyxadf-XAFZvaypHymy-4" value="&lt;span style=&quot;font-size: 15px;&quot;&gt;הוצאות&lt;br&gt;&lt;/span&gt;" style="rhombus;whiteSpace=wrap;html=1;rounded=0;" parent="1" vertex="1">
          <mxGeometry x="600" y="150" width="80" height="80" as="geometry" />
        </mxCell>
        <mxCell id="Ncyxadf-XAFZvaypHymy-15" style="edgeStyle=orthogonalEdgeStyle;rounded=0;orthogonalLoop=1;jettySize=auto;html=1;entryX=0.5;entryY=0;entryDx=0;entryDy=0;" parent="1" source="Ncyxadf-XAFZvaypHymy-8" target="Ncyxadf-XAFZvaypHymy-11" edge="1">
          <mxGeometry relative="1" as="geometry">
            <Array as="points">
              <mxPoint x="280" y="120" />
              <mxPoint x="320" y="120" />
            </Array>
          </mxGeometry>
        </mxCell>
        <mxCell id="Ncyxadf-XAFZvaypHymy-16" style="edgeStyle=orthogonalEdgeStyle;rounded=0;orthogonalLoop=1;jettySize=auto;html=1;entryX=0.5;entryY=0;entryDx=0;entryDy=0;" parent="1" source="Ncyxadf-XAFZvaypHymy-8" target="Ncyxadf-XAFZvaypHymy-12" edge="1">
          <mxGeometry relative="1" as="geometry">
            <Array as="points">
              <mxPoint x="280" y="120" />
              <mxPoint x="240" y="120" />
            </Array>
          </mxGeometry>
        </mxCell>
        <mxCell id="Ncyxadf-XAFZvaypHymy-8" value="&lt;font style=&quot;font-size: 25px;&quot;&gt;אירוע&lt;/font&gt;" style="whiteSpace=wrap;html=1;" parent="1" vertex="1">
          <mxGeometry x="220" y="40" width="120" height="60" as="geometry" />
        </mxCell>
        <mxCell id="Ncyxadf-XAFZvaypHymy-10" value="&lt;font style=&quot;font-size: 15px;&quot;&gt;תאריך&lt;/font&gt;" style="rhombus;whiteSpace=wrap;html=1;" parent="1" vertex="1">
          <mxGeometry x="360" y="160" width="80" height="80" as="geometry" />
        </mxCell>
        <mxCell id="Ncyxadf-XAFZvaypHymy-11" value="&lt;span style=&quot;font-size: 15px;&quot;&gt;סכום&lt;br&gt;&lt;/span&gt;" style="rhombus;whiteSpace=wrap;html=1;" parent="1" vertex="1">
          <mxGeometry x="280" y="160" width="80" height="80" as="geometry" />
        </mxCell>
        <mxCell id="Ncyxadf-XAFZvaypHymy-12" value="&lt;span style=&quot;font-size: 15px;&quot;&gt;תיאור&lt;br&gt;&lt;/span&gt;" style="rhombus;whiteSpace=wrap;html=1;" parent="1" vertex="1">
          <mxGeometry x="200" y="160" width="80" height="80" as="geometry" />
        </mxCell>
        <mxCell id="Ncyxadf-XAFZvaypHymy-13" value="&lt;span style=&quot;font-size: 15px;&quot;&gt;קטגוריה&lt;br&gt;&lt;/span&gt;" style="rhombus;whiteSpace=wrap;html=1;" parent="1" vertex="1">
          <mxGeometry x="120" y="160" width="80" height="80" as="geometry" />
        </mxCell>
        <mxCell id="Ncyxadf-XAFZvaypHymy-19" value="" style="edgeStyle=none;orthogonalLoop=1;jettySize=auto;html=1;rounded=0;entryX=0.5;entryY=0;entryDx=0;entryDy=0;" parent="1" target="Ncyxadf-XAFZvaypHymy-10" edge="1">
          <mxGeometry width="100" relative="1" as="geometry">
            <mxPoint x="320" y="120" as="sourcePoint" />
            <mxPoint x="420" y="150" as="targetPoint" />
            <Array as="points" />
          </mxGeometry>
        </mxCell>
        <mxCell id="Ncyxadf-XAFZvaypHymy-20" value="" style="edgeStyle=none;orthogonalLoop=1;jettySize=auto;html=1;rounded=0;entryX=0.5;entryY=0;entryDx=0;entryDy=0;" parent="1" target="Ncyxadf-XAFZvaypHymy-13" edge="1">
          <mxGeometry width="100" relative="1" as="geometry">
            <mxPoint x="240" y="120" as="sourcePoint" />
            <mxPoint x="230" y="170" as="targetPoint" />
            <Array as="points" />
          </mxGeometry>
        </mxCell>
        <mxCell id="Ncyxadf-XAFZvaypHymy-21" value="&lt;font style=&quot;font-size: 15px;&quot;&gt;אירוע&lt;/font&gt;" style="rhombus;whiteSpace=wrap;html=1;" parent="1" vertex="1">
          <mxGeometry x="660" y="270" width="80" height="80" as="geometry" />
        </mxCell>
        <mxCell id="Ncyxadf-XAFZvaypHymy-24" value="&lt;font style=&quot;font-size: 25px;&quot;&gt;קטגוריה&lt;/font&gt;" style="whiteSpace=wrap;html=1;" parent="1" vertex="1">
          <mxGeometry x="220" y="350" width="120" height="60" as="geometry" />
        </mxCell>
        <mxCell id="Ncyxadf-XAFZvaypHymy-25" value="&lt;font style=&quot;font-size: 15px;&quot;&gt;רישום&lt;/font&gt;" style="rhombus;whiteSpace=wrap;html=1;" parent="1" vertex="1">
          <mxGeometry x="385" y="430" width="80" height="80" as="geometry" />
        </mxCell>
        <mxCell id="Ncyxadf-XAFZvaypHymy-26" value="&lt;font style=&quot;font-size: 15px;&quot;&gt;חלקים לרובוט&lt;/font&gt;" style="rhombus;whiteSpace=wrap;html=1;" parent="1" vertex="1">
          <mxGeometry x="305" y="430" width="80" height="80" as="geometry" />
        </mxCell>
        <mxCell id="Ncyxadf-XAFZvaypHymy-27" value="&lt;font style=&quot;font-size: 15px;&quot;&gt;הסעות&lt;/font&gt;" style="rhombus;whiteSpace=wrap;html=1;" parent="1" vertex="1">
          <mxGeometry x="225" y="430" width="80" height="80" as="geometry" />
        </mxCell>
        <mxCell id="Ncyxadf-XAFZvaypHymy-28" value="&lt;span style=&quot;font-size: 15px;&quot;&gt;קהילה&lt;/span&gt;" style="rhombus;whiteSpace=wrap;html=1;" parent="1" vertex="1">
          <mxGeometry x="145" y="430" width="80" height="80" as="geometry" />
        </mxCell>
        <mxCell id="Ncyxadf-XAFZvaypHymy-29" value="&lt;span style=&quot;font-size: 15px;&quot;&gt;חלקי&lt;br&gt;משחק&lt;br&gt;&lt;/span&gt;" style="rhombus;whiteSpace=wrap;html=1;" parent="1" vertex="1">
          <mxGeometry x="65" y="430" width="80" height="80" as="geometry" />
        </mxCell>
        <mxCell id="Ncyxadf-XAFZvaypHymy-30" value="&lt;font style=&quot;font-size: 15px;&quot;&gt;אחר&lt;br&gt;&lt;/font&gt;" style="rhombus;whiteSpace=wrap;html=1;" parent="1" vertex="1">
          <mxGeometry x="465" y="430" width="80" height="80" as="geometry" />
        </mxCell>
        <mxCell id="Ncyxadf-XAFZvaypHymy-31" value="&lt;span style=&quot;font-size: 15px;&quot;&gt;&amp;nbsp;ציוד קבוצה&lt;br&gt;&lt;/span&gt;" style="rhombus;whiteSpace=wrap;html=1;" parent="1" vertex="1">
          <mxGeometry x="65" y="510" width="80" height="80" as="geometry" />
        </mxCell>
      </root>
    </mxGraphModel>
  </diagram>
</mxfile>
